<?xml version="1.0" standalone="no"?>
<!DOCTYPE svg PUBLIC "-//W3C//DTD SVG 20010904//EN"
 "http://www.w3.org/TR/2001/REC-SVG-20010904/DTD/svg10.dtd">
<svg version="1.0" xmlns="http://www.w3.org/2000/svg"
 width="500.000000pt" height="500.000000pt" viewBox="0 0 500.000000 500.000000"
 preserveAspectRatio="xMidYMid meet">
<metadata>
Created by potrace 1.14, written by Peter Selinger 2001-2017
</metadata>
<g transform="translate(0.000000,500.000000) scale(0.100000,-0.100000)"
fill="#000000" stroke="none">
<path d="M2729 3898 c-194 -266 -381 -519 -414 -564 -33 -45 -105 -142 -159
-217 -55 -75 -101 -135 -103 -133 -4 3 -22 78 -57 236 -102 458 -124 551 -129
556 -3 3 -72 23 -154 43 -81 21 -158 41 -171 45 -21 7 -29 -5 -121 -196 -54
-112 -140 -288 -191 -393 -51 -104 -127 -262 -170 -350 -86 -178 -195 -401
-384 -789 -69 -142 -126 -267 -126 -277 0 -27 38 -160 67 -238 56 -151 159
-332 251 -447 26 -31 34 -26 51 31 5 17 161 480 346 1030 185 550 343 1018
350 1040 15 48 7 73 74 -235 28 -124 61 -270 74 -326 l24 -100 -124 -170
c-181 -246 -175 -236 -119 -186 26 24 77 58 114 75 61 29 76 32 162 32 86 0
101 -3 162 -32 37 -17 90 -53 117 -78 l49 -46 70 118 c38 65 118 201 177 303
59 102 111 188 115 193 5 6 76 20 225 42 41 6 211 33 255 40 26 4 128 20 195
30 78 11 170 26 182 30 7 2 -4 47 -34 132 -25 70 -48 139 -51 152 -5 22 -8 23
-62 17 -32 -4 -67 -8 -78 -11 -10 -2 -43 -6 -72 -10 -29 -4 -60 -8 -69 -10
-15 -3 -110 -16 -141 -20 -8 -1 -42 -6 -74 -10 -34 -4 -57 -4 -54 1 26 43 328
561 352 601 16 29 33 50 37 45 4 -4 16 -34 27 -67 22 -64 146 -410 156 -436 6
-14 26 -13 189 9 100 14 184 26 186 28 3 3 -64 172 -281 705 l-39 96 -82 59
c-45 32 -104 75 -132 96 -27 21 -53 38 -56 38 -4 0 -165 -217 -360 -482z"/>
<path d="M3496 3314 c-88 -13 -161 -26 -164 -29 -3 -3 94 -298 103 -312 2 -3
388 56 391 60 1 1 -26 71 -60 154 -56 141 -63 153 -86 152 -14 0 -97 -12 -184
-25z"/>
<path d="M3750 2969 c-19 -4 -92 -15 -162 -25 -71 -10 -128 -21 -128 -25 0 -4
30 -92 66 -196 36 -103 83 -237 104 -298 50 -145 166 -475 245 -700 34 -99 86
-247 115 -330 28 -82 62 -179 75 -215 13 -36 43 -121 68 -190 41 -116 45 -125
68 -122 58 6 256 177 353 304 l28 37 -157 383 c-87 211 -209 509 -272 663 -64
154 -123 298 -133 320 -9 22 -50 122 -91 223 l-74 182 -35 -2 c-19 -1 -51 -5
-70 -9z"/>
<path d="M3087 2199 c-120 -29 -212 -118 -258 -250 -22 -63 -23 -73 -24 -541
l-2 -478 98 0 99 0 0 469 c0 382 3 475 14 502 53 126 248 153 330 46 65 -86
48 -213 -37 -281 -37 -30 -44 -31 -147 -34 l-108 -4 1 -96 2 -97 64 -3 c198
-9 345 68 424 223 27 53 31 72 33 155 3 81 0 103 -20 153 -46 112 -125 187
-236 225 -60 21 -172 26 -233 11z"/>
<path d="M1765 2179 c-115 -14 -212 -73 -271 -165 -51 -80 -62 -146 -64 -374
l-1 -200 100 0 100 0 3 208 3 209 29 37 c87 114 278 95 332 -33 10 -25 14 -83
14 -227 l0 -194 98 3 97 2 3 169 c2 93 -2 199 -7 235 -34 216 -217 355 -436
330z"/>
<path d="M2282 1937 l3 -223 34 -67 c65 -127 184 -204 331 -214 l80 -6 0 100
0 101 -64 4 c-78 5 -136 39 -167 99 -18 37 -21 60 -22 232 l-2 192 -98 3 -99
2 4 -223z"/>
</g>
</svg>
